<?xml version="1.0" standalone="no"?>
<!DOCTYPE svg PUBLIC "-//W3C//DTD SVG 20010904//EN"
 "http://www.w3.org/TR/2001/REC-SVG-20010904/DTD/svg10.dtd">
<svg version="1.0" xmlns="http://www.w3.org/2000/svg"
 width="409.000000pt" height="409.000000pt" viewBox="0 0 409.000000 409.000000"
 preserveAspectRatio="xMidYMid meet">
<metadata>
Created by potrace 1.14, written by Peter Selinger 2001-2017
</metadata>
<g transform="translate(0.000000,409.000000) scale(0.100000,-0.100000)"
fill="#000000" stroke="none">
<path d="M1820 3459 c-55 -6 -113 -14 -155 -23 -29 -7 -103 -29 -125 -39 -14
-6 -27 -11 -30 -12 -22 -7 -51 -20 -85 -38 -22 -12 -50 -26 -62 -32 -13 -5
-23 -13 -23 -17 0 -5 -7 -8 -15 -8 -8 0 -15 -5 -15 -12 0 -6 -3 -8 -7 -5 -3 4
-16 -5 -29 -18 -13 -14 -27 -25 -31 -25 -22 0 -215 -223 -205 -237 2 -2 -5
-12 -16 -21 -17 -15 -38 -61 -33 -71 2 -2 -4 -8 -13 -13 -9 -5 -14 -13 -11
-18 3 -5 1 -11 -5 -15 -6 -4 -8 -11 -5 -16 4 -5 1 -9 -4 -9 -6 0 -11 -6 -11
-13 0 -7 -9 -31 -19 -53 -11 -21 -17 -42 -14 -47 2 -4 0 -14 -7 -22 -6 -7 -12
-29 -13 -48 -1 -19 -5 -33 -8 -31 -3 2 -12 -33 -19 -77 -8 -44 -17 -82 -22
-85 -4 -3 -3 -14 2 -25 6 -10 7 -19 2 -19 -5 0 -9 -8 -10 -17 -3 -44 -1 -492
2 -528 8 -100 19 -165 27 -171 5 -3 7 -9 4 -14 -3 -5 1 -27 9 -49 8 -25 10
-41 4 -41 -7 0 -7 -4 0 -12 5 -7 16 -33 23 -58 7 -25 19 -55 27 -68 8 -12 12
-22 8 -22 -3 0 13 -36 35 -80 22 -44 44 -80 50 -80 6 0 7 -5 4 -10 -3 -6 1
-13 9 -16 9 -3 14 -9 11 -13 -10 -18 213 -251 241 -251 2 0 13 -8 24 -18 28
-26 197 -109 238 -118 8 -1 21 -6 30 -10 20 -8 29 -11 62 -18 14 -3 39 -9 55
-12 32 -8 41 -9 125 -18 97 -11 344 -10 364 2 6 3 27 5 48 5 21 0 41 3 43 8 3
4 12 6 20 2 8 -3 15 -1 15 3 0 5 19 9 43 9 23 -1 59 5 80 12 21 7 46 15 55 17
9 1 24 5 32 8 8 3 44 16 80 28 81 28 173 71 182 85 4 5 8 6 8 2 0 -4 9 -3 20
3 11 6 17 16 14 22 -4 6 -3 8 3 5 6 -4 22 2 36 13 14 11 29 20 34 20 5 0 33
24 64 53 l55 53 -1 535 0 534 -245 1 c-235 1 -247 1 -290 -21 -39 -19 -59 -22
-145 -21 -72 2 -111 7 -140 21 -27 12 -68 19 -126 21 l-86 2 -12 -51 c-6 -29
-13 -61 -15 -72 -5 -25 -9 -140 -7 -215 l1 -55 224 0 c292 0 282 7 298 -225
18 -254 13 -274 -68 -314 -54 -27 -333 -33 -479 -10 -96 15 -210 58 -243 90
-7 7 -26 21 -42 31 -17 9 -32 25 -35 34 -3 10 -19 32 -35 51 -16 18 -30 43
-30 56 0 12 -6 33 -14 45 -18 27 -58 173 -58 207 1 14 -8 55 -19 92 -24 78
-29 139 -16 188 5 19 10 134 12 255 1 121 5 229 8 240 15 57 68 189 88 217 31
46 88 97 113 104 12 3 32 20 46 39 38 50 106 89 154 89 79 -1 155 -9 285 -29
24 -4 58 -24 83 -48 8 -8 27 -21 43 -30 37 -19 105 -85 105 -101 0 -7 16 -31
36 -54 27 -32 37 -55 43 -95 9 -68 14 -75 51 -72 17 1 33 -1 36 -6 3 -5 10 -7
15 -3 17 10 59 12 65 3 3 -5 13 -6 22 -1 9 4 97 8 195 7 l179 0 -5 45 c-13
113 -71 322 -95 340 -4 3 -8 12 -10 20 -2 8 -11 26 -20 40 -9 14 -17 29 -17
33 0 5 -8 14 -17 21 -10 7 -18 18 -18 24 0 6 -8 16 -17 21 -10 6 -14 11 -9 11
14 0 -113 120 -160 151 -63 41 -99 63 -104 64 -3 0 -22 8 -44 19 -21 10 -44
19 -50 21 -6 1 -24 8 -41 15 -16 7 -41 14 -55 14 -14 1 -29 4 -35 8 -16 9 -83
21 -190 34 -71 8 -238 10 -305 3z"/>
</g>
</svg>
